<?xml version="1.0" encoding="UTF-8"?>
<!-- Generator: Adobe Illustrator 25.4.1, SVG Export Plug-In . SVG Version: 6.00 Build 0)  -->
<svg version="1.1" id="artwork" xmlns="http://www.w3.org/2000/svg" xmlns:xlink="http://www.w3.org/1999/xlink" x="0px" y="0px" viewBox="0 0 911.71 360" style="enable-background:new 0 0 911.71 360;" xml:space="preserve">
<style type="text/css">
	.st0{fill:#0F62FE;}
</style>
<path id="Call_x5F_for_x5F_Code_xAE__1_" class="st0" d="M143.96,180.52c0-24.34,12.48-37.75,31.87-37.75  c13.2,0,21.66,5.36,26.92,16.92l-13.51,7.01c-1.86-5.98-5.67-10.01-13.41-10.01c-9.18,0-15.27,6.19-15.27,17.54v11.55  c0,11.35,6.09,17.54,15.27,17.54c7.74,0,12.17-4.85,14.34-10.73l12.79,7.43c-5.36,10.93-13.93,17.23-27.13,17.23  C156.45,217.24,143.96,204.86,143.96,180.52z M253.1,216c-5.47,0-9.39-3.71-10.31-9.49h-0.62c-1.65,7.01-7.63,10.73-15.89,10.73  c-10.83,0-16.81-6.4-16.81-15.78c0-11.45,8.87-16.92,23.21-16.92h8.56v-3.4c0-5.26-2.58-8.56-8.97-8.56c-6.09,0-9.28,3.09-11.66,6.4  l-9.08-8.05c4.33-6.4,10.52-10.31,21.87-10.31c15.27,0,23.11,7.01,23.11,19.8v23.72h5.05V216H253.1z M241.23,199.6v-6.4h-7.43  c-5.88,0-8.97,2.17-8.97,6.09v1.55c0,3.92,2.58,5.78,7.12,5.78C237,206.61,241.23,204.55,241.23,199.6z M286.93,216  c-10.42,0-15.16-5.26-15.16-14.85v-61.48h15.27v64.47h6.81V216H286.93z M317.36,216c-10.42,0-15.16-5.26-15.16-14.85v-61.48h15.27  v64.47h6.81V216H317.36z M356.35,173.71h-7.63v-11.86h7.63v-6.4c0-10.42,5.67-15.78,16.19-15.78h9.9v11.86h-10.83v10.31h10.83v11.86  h-10.83V216h-15.27V173.71z M387.09,188.87c0-17.43,9.49-28.26,25.37-28.26c15.89,0,25.38,10.83,25.38,28.26  s-9.49,28.37-25.38,28.37C396.58,217.24,387.09,206.31,387.09,188.87z M421.95,194.44v-11.04c0-6.81-3.51-10.73-9.49-10.73  c-5.98,0-9.49,3.92-9.49,10.73v11.04c0,6.81,3.51,10.73,9.49,10.73C418.44,205.17,421.95,201.25,421.95,194.44z M448.67,216v-54.15  h15.27v11.76h0.52c1.24-5.98,5.36-11.76,13.82-11.76h2.68v14.23h-3.82c-8.87,0-13.2,1.96-13.2,8.25V216H448.67z M508.59,180.52  c0-24.34,12.48-37.75,31.87-37.75c13.2,0,21.66,5.36,26.92,16.92l-13.51,7.01c-1.86-5.98-5.67-10.01-13.41-10.01  c-9.18,0-15.27,6.19-15.27,17.54v11.55c0,11.35,6.09,17.54,15.27,17.54c7.74,0,12.17-4.85,14.34-10.73l12.79,7.43  c-5.36,10.93-13.93,17.23-27.13,17.23C521.08,217.24,508.59,204.86,508.59,180.52z M574.3,188.87c0-17.43,9.49-28.26,25.38-28.26  s25.38,10.83,25.38,28.26s-9.49,28.37-25.38,28.37S574.3,206.31,574.3,188.87z M609.16,194.44v-11.04c0-6.81-3.51-10.73-9.49-10.73  s-9.49,3.92-9.49,10.73v11.04c0,6.81,3.51,10.73,9.49,10.73S609.16,201.25,609.16,194.44z M669.09,206.92h-0.52  c-1.55,5.88-7.53,10.31-14.54,10.31c-13.72,0-20.84-10.01-20.84-28.37c0-18.36,7.12-28.26,20.84-28.26c7.01,0,13,4.33,14.54,10.31  h0.52v-31.25h15.27V216h-15.27V206.92z M669.09,196.92v-15.99c0-4.95-4.23-7.94-10-7.94s-10.01,4.44-10.01,11.24v9.39  c0,6.81,4.23,11.24,10.01,11.24S669.09,201.87,669.09,196.92z M695.19,188.87c0-17.12,9.08-28.26,25.37-28.26  c17.95,0,25.17,13,25.17,27.64v4.54h-34.76v0.83c0,7.12,3.82,11.66,11.97,11.66c6.39,0,9.9-2.99,13.31-6.5l7.63,9.49  c-4.85,5.57-12.79,8.97-22.69,8.97C704.58,217.24,695.19,206.2,695.19,188.87z M710.97,182.99v0.83h18.98v-0.93  c0-6.6-2.99-11.04-9.08-11.04S710.97,176.29,710.97,182.99z M750.83,157.44c0-4.95,3.74-8.65,8.44-8.65c4.66,0,8.44,3.69,8.44,8.65  c0,4.95-3.78,8.65-8.44,8.65C754.57,166.09,750.83,162.39,750.83,157.44z M765.56,158.07v-1.26c0-3.65-2.81-6.13-6.3-6.13  c-3.48,0-6.3,2.48-6.3,6.13v1.26c0,3.65,2.81,6.13,6.3,6.13C762.75,164.2,765.56,161.72,765.56,158.07z M758.13,161.85h-2.39v-8.77  h4.16c2.14,0,3.15,1.22,3.15,2.85c0,1.39-0.63,2.27-1.59,2.73l1.89,3.19h-2.6l-1.47-2.77h-1.13V161.85z M759.48,157.27  c0.71,0,1.13-0.29,1.13-0.92v-0.5c0-0.63-0.42-0.92-1.13-0.92h-1.34v2.35H759.48z"/>
</svg>